<svg version="1.1" id="Layer_1" xmlns="http://www.w3.org/2000/svg" xmlns:xlink="http://www.w3.org/1999/xlink" x="0px" y="0px"
	 width="100%" viewBox="85 308 895 332" xml:space="preserve">
<path fill="#ffffff" opacity="1.000000" stroke="none" 
	d="
M348.488281,492.496216 
	C355.664520,484.797852 362.036499,476.898529 368.269012,468.861023 
	C371.321808,464.924164 370.891907,462.072235 367.795929,458.375519 
	C351.141479,438.489380 331.660004,422.028473 309.254395,408.985382 
	C307.287994,407.840668 304.998230,407.054291 302.982605,403.913910 
	C311.308624,400.698578 317.481140,392.917450 328.011810,395.422546 
	C327.938507,389.876862 332.736755,390.024292 336.253326,388.723816 
	C339.643829,387.469879 340.919342,390.527008 342.626740,392.385498 
	C353.822357,404.571564 363.418640,417.944031 372.375122,431.846130 
	C375.776306,437.125366 380.310394,441.682404 384.394562,446.512421 
	C394.015228,457.890076 402.052429,470.309784 408.939331,483.499969 
	C411.677246,488.743774 412.563263,488.849976 416.712463,484.504852 
	C429.782166,470.817932 441.560455,456.212524 449.241913,438.696442 
	C449.633942,437.802490 450.013000,436.835968 451.459595,436.489471 
	C454.717285,439.682343 455.033844,444.117310 455.801575,448.212982 
	C457.392212,456.698395 456.495697,464.323914 450.044189,471.297302 
	C440.870392,481.213196 431.925720,491.313660 421.512268,499.955475 
	C418.935455,502.093903 418.380554,504.002594 419.481110,507.209778 
	C425.351440,524.316650 429.708740,541.793335 428.199371,560.049255 
	C426.149445,584.843933 416.223785,605.159424 392.612671,616.178955 
	C375.869476,623.993164 358.294922,623.177429 340.728668,618.864563 
	C324.734406,614.937561 309.753571,608.567871 295.910614,599.682251 
	C291.904022,597.110413 289.053223,597.422974 285.295715,600.329956 
	C265.823853,615.394287 244.685272,627.123474 219.904266,630.804565 
	C200.886902,633.629517 183.386795,630.540588 168.849777,616.806702 
	C158.241104,606.784058 153.307892,593.966919 151.837509,579.920227 
	C148.571533,548.719849 157.684296,520.350281 172.889664,493.574982 
	C174.740936,490.315033 176.171631,486.682312 179.833099,483.814850 
	C183.533096,489.141632 187.176132,494.240662 190.640503,499.458252 
	C191.750824,501.130493 190.264587,502.621521 189.551010,504.065460 
	C182.941071,517.440674 177.749084,531.363525 175.898224,546.181702 
	C174.087692,560.677002 174.507919,575.079346 181.423599,588.622681 
	C186.258301,598.090820 193.764374,604.176025 203.622253,607.571655 
	C213.966232,611.134888 224.447357,611.405518 235.106842,608.898926 
	C250.568283,605.263123 264.246674,598.026550 277.472809,589.102600 
	C274.676880,584.420593 268.920105,583.726318 266.542419,579.002136 
	C269.874664,576.187439 273.792877,574.658691 277.541779,573.187683 
	C280.669006,571.960632 283.115387,575.029297 285.375488,576.710205 
	C288.973022,579.385742 291.684570,579.205017 294.900513,576.196899 
	C299.500061,571.894653 304.728424,568.265747 309.145569,562.990601 
	C305.097992,561.323853 301.625763,564.642456 297.164154,563.459595 
	C311.196381,552.707214 328.469147,546.895630 337.466553,530.272400 
	C333.181702,531.954834 330.198425,534.697937 326.947052,536.987183 
	C323.542389,539.384277 320.228485,541.910339 316.820496,544.302612 
	C281.672272,568.974792 243.254028,585.816956 200.685165,592.654541 
	C191.463272,594.135864 190.912964,593.824219 186.958923,585.345825 
	C185.555695,582.336975 184.507462,579.158081 183.389954,576.023804 
	C183.132446,575.301514 183.256348,574.443359 183.186752,573.370972 
	C249.166656,568.663513 302.526886,538.490540 348.488281,492.496216 
M341.107178,600.431274 
	C348.540649,601.382019 355.914795,602.114197 363.451691,600.779724 
	C381.706940,597.547607 394.391449,587.845581 400.886414,570.219727 
	C406.427856,555.181335 404.827271,540.125000 401.660614,524.988525 
	C400.345795,518.703857 399.120422,518.144653 393.882202,521.675659 
	C376.017609,533.717773 357.214447,544.021057 337.272095,552.198547 
	C334.728333,553.241638 332.648376,554.706543 330.887146,556.805359 
	C323.179108,565.990845 315.371643,575.088135 306.457581,583.159729 
	C305.612793,583.924683 304.671234,584.698303 304.626648,586.741821 
	C315.322815,593.763123 327.468811,597.802734 341.107178,600.431274 
M389.118286,491.316589 
	C387.273590,488.467133 386.602875,484.810669 383.570068,482.807251 
	C374.368225,487.895233 353.469330,524.859192 353.116028,530.489319 
	C355.289368,530.741577 356.912781,529.446228 358.623688,528.541016 
	C367.924133,523.620422 376.687469,517.820251 385.018463,511.443329 
	C396.552673,502.614624 396.553040,505.918091 389.118286,491.316589 
z"/>
<path fill="#ffffff" opacity="1.000000" stroke="none" 
	d="
M301.786072,341.721802 
	C318.896088,330.646362 336.791748,322.387817 356.731415,319.257843 
	C367.888245,317.506531 378.997101,317.925110 389.777893,321.579865 
	C409.716919,328.339325 419.423706,343.401337 422.242798,363.300018 
	C426.325165,392.115936 418.402802,418.695343 405.888000,444.243835 
	C404.132080,447.828522 402.068665,451.263062 400.122162,454.752838 
	C399.975281,455.016174 399.623383,455.165100 398.841156,455.781097 
	C395.064148,450.860046 391.146118,446.017731 387.557648,440.942444 
	C386.239563,439.078247 387.960144,437.138550 388.718750,435.346161 
	C395.851196,418.493408 400.798096,401.132812 400.644531,382.651550 
	C400.568542,373.507721 398.264709,364.861023 393.923065,356.796814 
	C388.089111,345.960663 378.614532,340.024750 366.787659,338.550598 
	C344.150146,335.729004 324.187042,343.518066 305.505493,355.482605 
	C305.123840,355.727020 304.934387,356.271545 304.513885,356.881012 
	C306.541168,360.910614 311.586090,362.230957 313.607452,366.292328 
	C306.317139,371.998627 302.249298,372.522766 294.903168,368.181732 
	C291.739746,366.312408 289.306763,366.330933 286.337433,368.601257 
	C279.059845,374.165619 276.037872,376.918152 274.053070,380.817108 
	C276.703094,382.281494 279.566986,379.424377 282.381836,381.358978 
	C281.737549,383.931122 279.199036,384.359192 277.373383,385.508118 
	C266.842163,392.135498 255.236496,397.235718 246.917740,406.995239 
	C246.054977,408.007538 245.221695,409.050873 244.455673,410.136871 
	C244.114334,410.620789 243.974030,411.246460 243.470535,412.467255 
	C248.549057,410.643646 251.931885,407.400757 255.678070,404.815613 
	C288.642090,382.068054 324.237854,365.180756 363.448395,356.375183 
	C369.281616,355.065216 375.255981,354.389099 381.155975,353.367462 
	C383.079376,353.034393 384.903229,353.077850 386.147400,354.757507 
	C389.362579,359.098114 391.526886,363.934906 392.564026,369.248199 
	C393.103455,372.011688 391.199371,372.127289 389.246948,372.302887 
	C360.549500,374.884308 333.407196,382.974091 307.581055,395.590179 
	C269.866638,414.013702 238.021088,439.813049 211.362061,472.171600 
	C208.259293,475.937683 208.312180,478.477203 211.313934,482.460083 
	C227.832230,504.377533 248.766022,521.144043 271.802032,535.576111 
	C273.594452,536.698975 275.734039,537.437561 276.981445,540.269958 
	C270.632996,544.081177 263.997131,547.466980 257.016663,549.876221 
	C254.172928,550.857727 251.622528,547.060852 248.423508,546.695435 
	C247.762360,548.803467 250.094299,549.682068 249.828659,551.520264 
	C244.805939,557.056458 241.517441,557.237244 236.536331,552.095520 
	C230.265900,545.622925 224.123062,538.947632 219.292587,531.376465 
	C207.370361,512.690002 193.673386,495.241913 181.643692,476.644043 
	C177.296555,469.923401 173.439117,462.908691 170.137024,455.619446 
	C168.332367,451.635681 166.417206,451.211517 163.109528,454.181641 
	C149.489975,466.411255 137.869904,480.242981 128.689636,496.104492 
	C127.812691,497.619690 127.475822,499.633911 125.418106,500.247498 
	C120.874603,492.413208 122.011726,475.664429 127.505997,469.066498 
	C136.608627,458.135498 146.993942,448.522339 158.167267,439.782837 
	C161.285400,437.343933 162.027512,435.102753 160.831757,431.283600 
	C154.622025,411.450043 152.193863,391.243134 156.729187,370.709137 
	C162.510941,344.531921 182.443985,327.489655 209.152054,324.523590 
	C231.274002,322.066772 251.305359,328.367920 270.751923,337.730530 
	C275.843719,340.182007 280.946014,342.779724 285.563446,345.998840 
	C289.745575,348.914490 293.032715,348.722595 296.621124,345.416046 
	C298.078888,344.072784 299.849426,343.068909 301.786072,341.721802 
M210.673355,345.137268 
	C197.841690,349.085083 188.625107,357.244476 182.940094,369.321777 
	C177.008987,381.921906 176.065323,395.271698 177.866714,408.854584 
	C178.436417,413.150269 178.311447,417.838196 181.696442,421.675354 
	C182.998688,421.034729 184.239456,420.577393 185.317276,419.871338 
	C203.644135,407.865265 223.209503,398.338745 243.692566,390.645081 
	C246.047394,389.760559 248.390396,388.821289 250.124313,386.941254 
	C258.254272,378.126251 266.519073,369.448669 275.475067,361.456512 
	C277.720032,359.453156 277.332611,357.709991 274.803772,356.415375 
	C271.693848,354.823242 268.560181,353.257507 265.348358,351.887756 
	C248.044983,344.508423 230.347046,340.029510 210.673355,345.137268 
M191.879059,452.607178 
	C195.644928,459.187500 196.054672,459.104370 201.139801,453.578003 
	C205.886124,448.419830 210.243179,443.031250 213.736160,436.943573 
	C218.451614,428.725342 223.675583,420.834442 229.253204,413.176361 
	C230.001526,412.148926 231.205292,411.192688 229.993759,409.785461 
	C228.651611,409.200226 227.665421,410.030457 226.674240,410.523438 
	C216.699768,415.484650 206.878265,420.779053 197.858337,427.311157 
	C182.360153,438.534637 183.391281,433.629730 191.879059,452.607178 
z"/>
<path fill="#ffffff" opacity="1.000000" stroke="none" 
	d="
M466.903748,521.140259 
	C465.791473,522.953552 464.365601,523.255310 462.801636,523.255188 
	C457.020477,523.254883 451.239319,523.255066 445.844757,523.255066 
	C444.546509,520.684570 445.718567,519.257935 446.390381,517.816406 
	C458.348724,492.157990 470.375763,466.531525 482.282959,440.849426 
	C483.636383,437.930298 485.310699,436.466949 488.698853,436.545044 
	C493.850494,436.663788 499.018036,436.386353 504.169678,436.108002 
	C507.860687,435.908539 510.275879,436.965698 512.033264,440.639526 
	C524.033203,465.725403 536.274780,490.695587 548.399048,515.722168 
	C549.392578,517.773071 550.801147,519.749390 550.379211,523.102783 
	C543.921265,523.102783 537.382324,523.129028 530.843872,523.076416 
	C529.785095,523.067932 529.046936,522.270691 528.528320,521.368774 
	C527.947632,520.359009 527.153809,519.391479 526.879089,518.298462 
	C523.971985,506.730133 516.611755,503.308258 505.123901,504.799042 
	C496.767487,505.883392 488.153809,505.181335 479.663605,504.951324 
	C475.748108,504.845245 473.439453,506.232483 472.037262,509.863586 
	C470.600098,513.585266 468.776062,517.157532 466.903748,521.140259 
M500.445129,487.848114 
	C503.763580,487.434906 507.338654,488.850861 510.857605,486.404449 
	C507.003571,476.189484 502.257599,466.565796 496.930115,455.547577 
	C491.748627,467.054474 487.258575,477.025818 482.384766,487.849487 
	C488.906494,487.849487 494.184692,487.849487 500.445129,487.848114 
z"/>
<path fill="#ffffff" opacity="1.000000" stroke="none" 
	d="
M854.735474,501.644440 
	C853.372803,503.972870 852.213135,505.994202 851.037476,508.006226 
	C846.009705,516.610535 837.823730,516.575317 832.693054,507.930786 
	C829.550293,502.635620 826.415894,497.335449 823.243591,492.058075 
	C823.007690,491.665649 822.496216,491.438904 822.058350,491.091919 
	C819.765808,492.093170 820.411499,494.160400 820.385193,495.829987 
	C820.282898,502.322784 820.188904,508.820679 820.344116,515.310669 
	C820.430115,518.906250 819.174805,520.645508 815.439758,520.288147 
	C814.119873,520.161865 812.763428,520.147766 811.447876,520.296875 
	C807.226440,520.775085 805.792542,518.694092 805.895813,514.759583 
	C806.157715,504.783813 806.374329,494.805603 806.461975,484.827057 
	C806.504211,480.012970 806.276367,475.193146 806.055969,470.381195 
	C805.890259,466.762848 807.097717,465.141418 811.096008,464.730011 
	C819.015686,463.915039 824.771057,465.720001 828.166626,473.722504 
	C830.554688,479.350708 834.134399,484.480835 837.273682,489.779022 
	C838.509216,491.864227 839.371399,494.349060 842.173157,495.378693 
	C845.246277,493.400848 846.500671,490.030579 848.245483,487.104065 
	C851.569214,481.529022 854.856323,475.917847 857.820923,470.148132 
	C859.808411,466.280243 862.419922,464.262482 866.890808,464.817902 
	C868.858582,465.062378 870.884644,464.924469 872.879517,464.843689 
	C876.062500,464.714874 877.327515,466.173431 877.309753,469.345856 
	C877.223022,484.831451 877.208679,500.317810 877.267883,515.803528 
	C877.279785,518.921265 876.172974,520.205811 872.917236,520.342712 
	C863.187683,520.751892 863.074036,520.783691 863.011841,511.153046 
	C862.967224,504.256073 863.003052,497.358521 863.003052,489.234436 
	C858.545288,493.277557 857.198425,497.613556 854.735474,501.644440 
z"/>
<path fill="#ffffff" opacity="1.000000" stroke="none" 
	d="
M126.792114,556.179565 
	C131.227325,560.802551 135.962830,564.423523 141.458954,567.007385 
	C143.127487,567.791809 145.025040,568.526001 145.054047,570.726501 
	C145.150482,578.039429 146.444931,585.232971 147.380493,592.125916 
	C146.185745,593.595215 144.926254,593.426941 143.843994,593.186096 
	C130.543884,590.226501 117.985748,585.738708 107.503586,576.503174 
	C93.986481,564.593689 90.892471,549.157227 93.046806,532.426514 
	C94.876305,518.218445 100.729469,505.261475 108.558334,493.265472 
	C109.219193,492.252808 109.668297,490.731537 111.795418,490.826019 
	C112.691864,495.586853 112.737946,500.798645 114.693481,505.152863 
	C118.428024,513.468140 118.871033,521.518555 117.790718,530.549316 
	C116.687706,539.769775 120.604012,548.488525 126.792114,556.179565 
z"/>
<path fill="#ffffff" opacity="1.000000" stroke="none" 
	d="
M472.156952,436.993713 
	C470.588715,440.114929 469.170685,442.888458 467.793762,445.581635 
	C465.330231,444.842041 465.842834,443.036407 465.528839,441.698181 
	C463.912079,434.806732 461.349945,428.352325 456.888702,422.775421 
	C455.696991,421.285675 454.992004,419.835724 455.227570,417.786438 
	C457.282288,399.913483 449.954193,387.066986 433.922913,379.274536 
	C430.068359,377.400909 428.325439,375.081390 428.771484,370.809021 
	C429.344452,365.321381 427.650085,359.967102 427.132263,354.070923 
	C435.308868,353.160980 442.569733,355.671906 449.481842,358.700012 
	C474.309906,369.577026 484.433716,389.757507 478.847290,416.254333 
	C477.364990,423.284912 475.357147,430.127686 472.156952,436.993713 
z"/>
<path fill="#ffffff" opacity="1.000000" stroke="none" 
	d="
M682.959717,465.923645 
	C696.194458,464.469025 709.251343,463.091614 721.866821,466.845306 
	C735.723999,470.968506 742.033264,482.278229 740.269104,497.724365 
	C738.860107,510.061279 728.406921,519.341919 714.116943,520.142456 
	C704.814087,520.663696 695.459656,520.238098 686.128784,520.303955 
	C683.522400,520.322388 681.875488,519.327393 681.881470,516.608337 
	C681.917603,500.284454 682.009399,483.960693 682.113159,467.637085 
	C682.116089,467.174652 682.460571,466.714386 682.959717,465.923645 
M696.262512,494.485840 
	C696.268494,497.649475 696.384155,500.817841 696.248413,503.975372 
	C696.121826,506.919586 697.497437,508.400360 700.291138,508.482666 
	C705.433533,508.634216 710.600159,509.175873 715.667175,507.635162 
	C723.446411,505.269745 726.457214,500.220306 725.755371,490.545807 
	C725.245178,483.513794 720.657959,478.293243 713.591858,477.452271 
	C709.151672,476.923889 704.618286,477.188477 700.127319,477.073547 
	C697.412598,477.004089 696.184692,478.285339 696.229858,481.005676 
	C696.298889,485.167175 696.257874,489.330475 696.262512,494.485840 
z"/>
<path fill="#ffffff" opacity="1.000000" stroke="none" 
	d="
M747.806030,484.001617 
	C747.812317,479.171234 747.948975,474.835663 747.790344,470.510925 
	C747.643616,466.510834 749.228821,464.765259 753.343994,464.802887 
	C766.835205,464.926392 780.328247,464.871796 793.820496,464.845093 
	C796.582031,464.839600 799.062073,465.102112 798.481201,468.813354 
	C797.981995,472.003357 800.254944,476.847992 794.108887,476.943909 
	C785.282654,477.081665 776.454529,477.138580 767.627197,477.142242 
	C764.561035,477.143524 762.098877,477.194092 762.105469,481.484833 
	C762.111755,485.541534 764.223267,486.140808 767.452271,486.146820 
	C774.435181,486.159821 781.421875,486.474274 788.398682,486.310669 
	C791.833496,486.230103 793.495178,487.307526 793.225708,490.801117 
	C792.978455,494.007355 794.629150,498.300873 788.739502,498.216675 
	C781.411865,498.111877 774.077087,498.341431 766.754395,498.123199 
	C762.740662,498.003571 762.088379,500.004822 762.120117,503.362915 
	C762.151062,506.629181 762.622131,508.791595 766.688416,508.710663 
	C775.846130,508.528442 785.017517,508.868927 794.167847,508.550720 
	C798.803162,508.389526 800.241028,510.044403 800.281555,514.544617 
	C800.320496,518.879395 798.936646,520.438110 794.544800,520.372009 
	C780.888916,520.166504 767.225952,520.150208 753.570496,520.363708 
	C749.109314,520.433411 747.756287,518.688049 747.822083,514.482605 
	C747.978333,504.491333 747.831848,494.495270 747.806030,484.001617 
z"/>
<path fill="#ffffff" opacity="1.000000" stroke="none" 
	d="
M908.936523,511.028748 
	C915.403198,497.273376 921.832397,483.916168 927.942017,470.414276 
	C929.770630,466.373108 932.159607,464.296356 936.693726,464.795807 
	C938.999084,465.049713 941.355347,464.905609 943.686096,464.844971 
	C945.771240,464.790741 947.159973,465.710510 948.048462,467.543945 
	C956.035706,484.025360 964.036438,500.500183 971.994934,516.995422 
	C972.331177,517.692383 972.290955,518.570862 972.475647,519.655701 
	C968.215454,520.903809 964.082275,520.249268 960.018860,520.129089 
	C957.401184,520.051697 956.460022,517.662842 955.899597,515.648132 
	C954.373352,510.161194 950.912415,508.523468 945.449646,508.975525 
	C939.988586,509.427490 934.461609,509.113190 928.963867,509.076813 
	C926.591736,509.061127 925.017151,509.818848 923.840210,512.143005 
	C919.268005,521.172485 917.558533,521.831177 906.416199,519.605957 
	C905.523621,516.422241 907.860657,514.078735 908.936523,511.028748 
M941.181396,496.912476 
	C942.754944,496.713867 944.487244,497.384735 946.264404,495.735809 
	C944.234009,490.881439 942.531372,485.748505 938.262207,481.112854 
	C934.959778,486.219879 933.184753,491.020111 931.623901,496.006836 
	C934.739136,497.545624 937.578613,496.670959 941.181396,496.912476 
z"/>
<path fill="#ffffff" opacity="1.000000" stroke="none" 
	d="
M675.951172,515.377808 
	C676.436462,516.974915 677.459167,518.120850 676.498535,519.722778 
	C672.741394,520.789612 668.747498,520.211670 664.801880,520.173828 
	C661.568298,520.142822 660.851562,517.264404 660.112244,515.034973 
	C658.550964,510.327026 655.655823,508.670258 650.730225,509.039795 
	C645.100586,509.462128 639.414490,509.181641 633.753967,509.119812 
	C631.369202,509.093750 629.738159,509.858856 628.529053,512.097351 
	C623.722229,520.996216 621.760498,521.801758 611.403992,519.644592 
	C610.271851,517.540710 611.692627,515.821899 612.489258,514.120728 
	C619.194763,499.800995 626.146973,485.593842 632.645081,471.181549 
	C634.784302,466.436798 637.473083,463.847931 642.840515,464.770630 
	C643.972107,464.965179 645.181152,464.909729 646.329651,464.768005 
	C650.216736,464.288422 652.316406,466.018494 653.972046,469.561096 
	C661.087891,484.786774 668.488892,499.879150 675.951172,515.377808 
M645.272583,496.951813 
	C646.998657,496.752808 648.964722,497.488831 650.614319,495.294678 
	C648.542542,490.513733 646.735046,485.398987 642.995544,480.250702 
	C640.344543,486.090027 637.484558,490.689453 636.560730,496.208923 
	C639.443909,497.366791 641.953064,496.800323 645.272583,496.951813 
z"/>
<path fill="#ffffff" opacity="1.000000" stroke="none" 
	d="
M558.321533,474.394287 
	C569.743469,463.163635 586.575317,460.430908 600.533447,467.371948 
	C602.307739,468.254242 604.096985,469.281860 605.540527,470.610260 
	C607.432129,472.351135 610.708191,474.126434 609.778381,476.819000 
	C608.626038,480.155792 604.782837,481.511780 601.644226,482.898834 
	C599.612061,483.796936 598.531433,481.435425 597.175476,480.339722 
	C588.211731,473.096405 573.866394,474.738342 568.960938,483.609833 
	C565.414185,490.024139 566.153564,498.761566 570.663818,503.733582 
	C575.891418,509.496368 584.756897,511.245117 592.252319,507.921204 
	C593.767639,507.249176 595.563599,506.650146 596.555786,505.456818 
	C600.538879,500.666412 603.869385,502.458435 607.882080,505.613037 
	C611.274536,508.280090 610.860107,510.129547 608.167847,512.754089 
	C601.435913,519.316772 593.234192,521.932007 584.072571,521.800049 
	C580.770447,521.752563 577.376587,521.411438 574.197571,520.559082 
	C553.014893,514.879883 545.417297,493.085907 558.321533,474.394287 
z"/>
<path fill="#ffffff" opacity="1.000000" stroke="none" 
	d="
M901.315918,480.005157 
	C901.306091,491.500092 901.299988,502.495880 901.282593,513.491638 
	C901.271790,520.287354 901.264038,520.288696 894.251343,520.299438 
	C893.085205,520.301270 891.917847,520.246765 890.753296,520.286072 
	C888.410217,520.365173 887.593994,519.195374 887.487488,516.933411 
	C886.743042,501.116119 887.123169,485.291382 887.054932,469.469727 
	C887.040283,466.073395 888.692627,464.623230 892.021973,464.844086 
	C893.349243,464.932129 894.693298,464.955536 896.018188,464.855469 
	C899.770325,464.572021 901.628479,466.000092 901.350708,470.012970 
	C901.132629,473.163025 901.312134,476.340607 901.315918,480.005157 
z"/>
</svg>